<?xml version="1.0" encoding="UTF-8" ?>
<svg version="1.1" width="90" height="70" xmlns="http://www.w3.org/2000/svg" shape-rendering="crispEdges">
<rect x="10" y="0" width="10" height="10" fill="#FFFFFF" />
<rect x="40" y="0" width="10" height="10" fill="#FFFFFF" />
<rect x="0" y="10" width="10" height="20" fill="#FFFFFF" />
<rect x="30" y="10" width="10" height="20" fill="#FFFFFF" />
<rect x="50" y="10" width="10" height="20" fill="#FFFFFF" />
<rect x="10" y="20" width="20" height="10" fill="#FFFFFF" />
<rect x="40" y="20" width="10" height="10" fill="#FFFFFF" />
<rect x="60" y="20" width="20" height="10" fill="#FFFFFF" />
<rect x="20" y="30" width="10" height="30" fill="#FFFFFF" />
<rect x="60" y="30" width="10" height="30" fill="#FFFFFF" />
<rect x="80" y="30" width="10" height="10" fill="#FFFFFF" />
<rect x="40" y="40" width="10" height="10" fill="#FFFFFF" />
<rect x="70" y="40" width="10" height="10" fill="#FFFFFF" />
<rect x="0" y="50" width="10" height="10" fill="#FFFFFF" />
<rect x="80" y="50" width="10" height="10" fill="#FFFFFF" />
<rect x="10" y="60" width="10" height="10" fill="#FFFFFF" />
<rect x="70" y="60" width="10" height="10" fill="#FFFFFF" />
</svg>