<?xml version="1.0" encoding="UTF-8" ?>
<svg version="1.1" width="290" height="220" xmlns="http://www.w3.org/2000/svg" shape-rendering="crispEdges">
<rect x="130" y="0" width="30" height="10" fill="#FFFFFF" />
<rect x="120" y="10" width="10" height="50" fill="#FFFFFF" />
<rect x="160" y="10" width="10" height="50" fill="#FFFFFF" />
<rect x="140" y="20" width="10" height="10" fill="#FFFFFF" />
<rect x="10" y="40" width="30" height="10" fill="#FFFFFF" />
<rect x="130" y="40" width="30" height="10" fill="#FFFFFF" />
<rect x="0" y="50" width="10" height="30" fill="#FFFFFF" />
<rect x="40" y="50" width="10" height="10" fill="#FFFFFF" />
<rect x="20" y="60" width="10" height="10" fill="#FFFFFF" />
<rect x="110" y="60" width="10" height="30" fill="#FFFFFF" />
<rect x="170" y="60" width="10" height="30" fill="#FFFFFF" />
<rect x="10" y="80" width="100" height="10" fill="#FFFFFF" />
<rect x="120" y="80" width="50" height="10" fill="#FFFFFF" />
<rect x="180" y="80" width="100" height="10" fill="#FFFFFF" />
<rect x="100" y="90" width="10" height="20" fill="#FFFFFF" />
<rect x="180" y="90" width="10" height="20" fill="#FFFFFF" />
<rect x="280" y="90" width="10" height="30" fill="#FFFFFF" />
<rect x="260" y="100" width="10" height="10" fill="#FFFFFF" />
<rect x="90" y="110" width="10" height="20" fill="#FFFFFF" />
<rect x="190" y="110" width="10" height="20" fill="#FFFFFF" />
<rect x="240" y="110" width="10" height="10" fill="#FFFFFF" />
<rect x="130" y="120" width="30" height="10" fill="#FFFFFF" />
<rect x="250" y="120" width="30" height="10" fill="#FFFFFF" />
<rect x="80" y="130" width="10" height="40" fill="#FFFFFF" />
<rect x="120" y="130" width="10" height="30" fill="#FFFFFF" />
<rect x="160" y="130" width="10" height="30" fill="#FFFFFF" />
<rect x="200" y="130" width="10" height="40" fill="#FFFFFF" />
<rect x="140" y="140" width="10" height="10" fill="#FFFFFF" />
<rect x="130" y="160" width="30" height="10" fill="#FFFFFF" />
<rect x="30" y="170" width="10" height="10" fill="#FFFFFF" />
<rect x="70" y="170" width="10" height="20" fill="#FFFFFF" />
<rect x="210" y="170" width="10" height="20" fill="#FFFFFF" />
<rect x="250" y="170" width="10" height="10" fill="#FFFFFF" />
<rect x="20" y="180" width="10" height="30" fill="#FFFFFF" />
<rect x="260" y="180" width="10" height="30" fill="#FFFFFF" />
<rect x="40" y="190" width="10" height="10" fill="#FFFFFF" />
<rect x="60" y="190" width="10" height="20" fill="#FFFFFF" />
<rect x="220" y="190" width="10" height="20" fill="#FFFFFF" />
<rect x="240" y="190" width="10" height="10" fill="#FFFFFF" />
<rect x="30" y="210" width="30" height="10" fill="#FFFFFF" />
<rect x="230" y="210" width="30" height="10" fill="#FFFFFF" />
</svg>