<svg xmlns="http://www.w3.org/2000/svg" width="1600" height="900" viewBox="0 0 1600 900" version="1.1">
	<path d="M -0 450.001 L -0 900.001 800.250 899.751 L 1600.500 899.500 1600.751 449.750 L 1601.002 0 800.501 0 L 0 0 -0 450.001 M 0.496 450.500 C 0.496 698, 0.610 799.101, 0.750 675.168 C 0.890 551.236, 0.890 348.736, 0.750 225.168 C 0.610 101.601, 0.496 203, 0.496 450.500 M 790 335 L 790 340 785 340 L 780 340 780 365 L 780 390 775 390 L 770 390 770 400 L 770 410 720 410 L 670 410 670 395 L 670 380 685 380 L 700 380 700 385 L 700 390 705 390 L 710 390 710 385 L 710 380 705 380 L 700 380 700 375 L 700 370 685 370 L 670 370 670 375 L 670 380 665 380 L 660 380 660 395 L 660 410 665 410 L 670 410 670 415 L 670 420 715 420 L 760 420 760 430 L 760 440 755 440 L 750 440 750 450 L 750 460 745 460 L 740 460 740 480 L 740 500 735 500 L 730 500 730 510 L 730 520 725 520 L 720 520 720 530 L 720 540 705 540 L 690 540 690 525 L 690 510 695 510 L 700 510 700 505 L 700 500 695 500 L 690 500 690 505 L 690 510 685 510 L 680 510 680 525 L 680 540 685 540 L 690 540 690 545 L 690 550 705 550 L 720 550 720 545 L 720 540 725 540 L 730 540 730 530 L 730 520 735 520 L 740 520 740 510 L 740 500 745 500 L 750 500 750 480 L 750 460 755 460 L 760 460 760 450 L 760 440 765 440 L 770 440 770 430 L 770 420 805 420 L 840 420 840 430 L 840 440 845 440 L 850 440 850 450 L 850 460 855 460 L 860 460 860 480 L 860 500 865 500 L 870 500 870 510 L 870 520 875 520 L 880 520 880 530 L 880 540 885 540 L 890 540 890 545 L 890 550 905 550 L 920 550 920 545 L 920 540 925 540 L 930 540 930 525 L 930 510 925 510 L 920 510 920 505 L 920 500 915 500 L 910 500 910 505 L 910 510 915 510 L 920 510 920 525 L 920 540 905 540 L 890 540 890 530 L 890 520 885 520 L 880 520 880 510 L 880 500 875 500 L 870 500 870 480 L 870 460 865 460 L 860 460 860 450 L 860 440 855 440 L 850 440 850 430 L 850 420 895 420 L 940 420 940 435 L 940 450 925 450 L 910 450 910 445 L 910 440 905 440 L 900 440 900 445 L 900 450 905 450 L 910 450 910 455 L 910 460 925 460 L 940 460 940 455 L 940 450 945 450 L 950 450 950 435 L 950 420 945 420 L 940 420 940 415 L 940 410 890 410 L 840 410 840 400 L 840 390 835 390 L 830 390 830 365 L 830 340 825 340 L 820 340 820 335 L 820 330 805 330 L 790 330 790 335 M 790 355 L 790 370 805 370 L 820 370 820 355 L 820 340 805 340 L 790 340 790 355 M 800 355 L 800 360 805 360 L 810 360 810 355 L 810 350 805 350 L 800 350 800 355 M 790 385 L 790 390 785 390 L 780 390 780 400 L 780 410 805 410 L 830 410 830 400 L 830 390 825 390 L 820 390 820 385 L 820 380 805 380 L 790 380 790 385 M 680 395 L 680 400 685 400 L 690 400 690 395 L 690 390 685 390 L 680 390 680 395 M 920 435 L 920 440 925 440 L 930 440 930 435 L 930 430 925 430 L 920 430 920 435 M 790 455 L 790 460 785 460 L 780 460 780 475 L 780 490 785 490 L 790 490 790 495 L 790 500 805 500 L 820 500 820 495 L 820 490 825 490 L 830 490 830 475 L 830 460 825 460 L 820 460 820 455 L 820 450 805 450 L 790 450 790 455 M 790 475 L 790 490 805 490 L 820 490 820 475 L 820 460 805 460 L 790 460 790 475 M 800 475 L 800 480 805 480 L 810 480 810 475 L 810 470 805 470 L 800 470 800 475 M 700 525 L 700 530 705 530 L 710 530 710 525 L 710 520 705 520 L 700 520 700 525 M 900 525 L 900 530 905 530 L 910 530 910 525 L 910 520 905 520 L 900 520 900 525" stroke="none" fill="#222222" fill-rule="evenodd"/>
</svg>