<?xml version="1.0" encoding="UTF-8" ?>
<svg version="1.1" width="38" height="38" xmlns="http://www.w3.org/2000/svg" shape-rendering="crispEdges">
<rect x="15" y="0" width="8" height="1" fill="#FFFFFF" />
<rect x="12" y="1" width="3" height="1" fill="#FFFFFF" />
<rect x="23" y="1" width="3" height="1" fill="#FFFFFF" />
<rect x="10" y="2" width="2" height="1" fill="#FFFFFF" />
<rect x="26" y="2" width="2" height="1" fill="#FFFFFF" />
<rect x="9" y="3" width="1" height="1" fill="#FFFFFF" />
<rect x="28" y="3" width="1" height="1" fill="#FFFFFF" />
<rect x="7" y="4" width="2" height="1" fill="#FFFFFF" />
<rect x="29" y="4" width="2" height="1" fill="#FFFFFF" />
<rect x="6" y="5" width="1" height="1" fill="#FFFFFF" />
<rect x="31" y="5" width="1" height="1" fill="#FFFFFF" />
<rect x="5" y="6" width="1" height="1" fill="#FFFFFF" />
<rect x="18" y="6" width="3" height="1" fill="#FFFFFF" />
<rect x="32" y="6" width="1" height="1" fill="#FFFFFF" />
<rect x="4" y="7" width="1" height="2" fill="#FFFFFF" />
<rect x="17" y="7" width="1" height="3" fill="#FFFFFF" />
<rect x="21" y="7" width="1" height="3" fill="#FFFFFF" />
<rect x="33" y="7" width="1" height="2" fill="#FFFFFF" />
<rect x="19" y="8" width="1" height="1" fill="#FFFFFF" />
<rect x="3" y="9" width="1" height="1" fill="#FFFFFF" />
<rect x="34" y="9" width="1" height="1" fill="#FFFFFF" />
<rect x="2" y="10" width="1" height="2" fill="#FFFFFF" />
<rect x="18" y="10" width="3" height="1" fill="#FFFFFF" />
<rect x="35" y="10" width="1" height="2" fill="#FFFFFF" />
<rect x="6" y="11" width="3" height="1" fill="#FFFFFF" />
<rect x="17" y="11" width="1" height="2" fill="#FFFFFF" />
<rect x="21" y="11" width="1" height="2" fill="#FFFFFF" />
<rect x="1" y="12" width="1" height="3" fill="#FFFFFF" />
<rect x="5" y="12" width="1" height="3" fill="#FFFFFF" />
<rect x="9" y="12" width="1" height="1" fill="#FFFFFF" />
<rect x="36" y="12" width="1" height="3" fill="#FFFFFF" />
<rect x="7" y="13" width="1" height="1" fill="#FFFFFF" />
<rect x="16" y="13" width="1" height="3" fill="#FFFFFF" />
<rect x="22" y="13" width="1" height="3" fill="#FFFFFF" />
<rect x="0" y="15" width="1" height="8" fill="#FFFFFF" />
<rect x="6" y="15" width="10" height="1" fill="#FFFFFF" />
<rect x="17" y="15" width="5" height="1" fill="#FFFFFF" />
<rect x="23" y="15" width="10" height="1" fill="#FFFFFF" />
<rect x="37" y="15" width="1" height="8" fill="#FFFFFF" />
<rect x="15" y="16" width="1" height="3" fill="#FFFFFF" />
<rect x="23" y="16" width="1" height="3" fill="#FFFFFF" />
<rect x="33" y="16" width="1" height="3" fill="#FFFFFF" />
<rect x="31" y="17" width="1" height="1" fill="#FFFFFF" />
<rect x="29" y="18" width="1" height="1" fill="#FFFFFF" />
<rect x="14" y="19" width="1" height="6" fill="#FFFFFF" />
<rect x="18" y="19" width="3" height="1" fill="#FFFFFF" />
<rect x="24" y="19" width="1" height="6" fill="#FFFFFF" />
<rect x="30" y="19" width="3" height="1" fill="#FFFFFF" />
<rect x="17" y="20" width="1" height="3" fill="#FFFFFF" />
<rect x="21" y="20" width="1" height="3" fill="#FFFFFF" />
<rect x="19" y="21" width="1" height="1" fill="#FFFFFF" />
<rect x="1" y="23" width="1" height="3" fill="#FFFFFF" />
<rect x="18" y="23" width="3" height="1" fill="#FFFFFF" />
<rect x="36" y="23" width="1" height="3" fill="#FFFFFF" />
<rect x="9" y="25" width="1" height="1" fill="#FFFFFF" />
<rect x="13" y="25" width="1" height="2" fill="#FFFFFF" />
<rect x="25" y="25" width="1" height="2" fill="#FFFFFF" />
<rect x="29" y="25" width="1" height="1" fill="#FFFFFF" />
<rect x="2" y="26" width="1" height="2" fill="#FFFFFF" />
<rect x="8" y="26" width="1" height="3" fill="#FFFFFF" />
<rect x="30" y="26" width="1" height="3" fill="#FFFFFF" />
<rect x="35" y="26" width="1" height="2" fill="#FFFFFF" />
<rect x="10" y="27" width="1" height="1" fill="#FFFFFF" />
<rect x="12" y="27" width="1" height="2" fill="#FFFFFF" />
<rect x="26" y="27" width="1" height="2" fill="#FFFFFF" />
<rect x="28" y="27" width="1" height="1" fill="#FFFFFF" />
<rect x="3" y="28" width="1" height="1" fill="#FFFFFF" />
<rect x="34" y="28" width="1" height="1" fill="#FFFFFF" />
<rect x="4" y="29" width="1" height="2" fill="#FFFFFF" />
<rect x="9" y="29" width="3" height="1" fill="#FFFFFF" />
<rect x="27" y="29" width="3" height="1" fill="#FFFFFF" />
<rect x="33" y="29" width="1" height="2" fill="#FFFFFF" />
<rect x="5" y="31" width="1" height="1" fill="#FFFFFF" />
<rect x="32" y="31" width="1" height="1" fill="#FFFFFF" />
<rect x="6" y="32" width="1" height="1" fill="#FFFFFF" />
<rect x="31" y="32" width="1" height="1" fill="#FFFFFF" />
<rect x="7" y="33" width="2" height="1" fill="#FFFFFF" />
<rect x="29" y="33" width="2" height="1" fill="#FFFFFF" />
<rect x="9" y="34" width="1" height="1" fill="#FFFFFF" />
<rect x="28" y="34" width="1" height="1" fill="#FFFFFF" />
<rect x="10" y="35" width="2" height="1" fill="#FFFFFF" />
<rect x="26" y="35" width="2" height="1" fill="#FFFFFF" />
<rect x="12" y="36" width="3" height="1" fill="#FFFFFF" />
<rect x="23" y="36" width="3" height="1" fill="#FFFFFF" />
<rect x="15" y="37" width="8" height="1" fill="#FFFFFF" />
</svg>