<svg width="296" height="215" viewBox="0 0 296 215" fill="none" xmlns="http://www.w3.org/2000/svg">
<path d="M15.7833 32.3484C18.6692 31.2319 21.7756 30.7995 24.8566 31.0867C27.7711 31.3584 30.5888 32.2667 33.111 33.7445C33.3492 33.8841 33.4211 34.1929 33.2755 34.4275C33.1305 34.6625 32.8226 34.7345 32.5842 34.5952C30.1936 33.1988 27.5243 32.3402 24.7638 32.0828C21.8369 31.81 18.8862 32.2204 16.1446 33.281C13.403 34.3417 10.9442 36.0243 8.963 38.196C6.98203 40.3677 5.53182 42.9696 4.72667 45.7966C3.9216 48.6237 3.78372 51.5995 4.32335 54.489C4.8631 57.3784 6.06582 60.1041 7.83703 62.45C9.60828 64.7956 11.9002 66.6984 14.5314 68.0085C17.0134 69.2443 19.7344 69.9216 22.5021 69.9942C22.7781 70.0014 23.0021 70.2246 23.0021 70.5008C23.0021 70.7769 22.7782 71.0014 22.5021 70.9945C19.5798 70.9217 16.7065 70.2087 14.0861 68.9041C11.3164 67.525 8.90368 65.5216 7.03917 63.0525C5.17473 60.5832 3.9081 57.7141 3.33995 54.6726C2.7719 51.6309 2.91724 48.4982 3.76476 45.5222C4.61236 42.5462 6.13928 39.8072 8.22472 37.5212C10.3101 35.2354 12.8976 33.4649 15.7833 32.3484Z" fill="white"/>
<path d="M15.7833 32.3484L14.7009 29.5505L14.7008 29.5505L15.7833 32.3484ZM24.8566 31.0867L25.1351 28.0996L25.135 28.0996L24.8566 31.0867ZM33.2755 34.4275L30.7266 32.8454L30.7223 32.8523L33.2755 34.4275ZM24.7638 32.0828L25.0423 29.0957L25.0422 29.0957L24.7638 32.0828ZM16.1446 33.281L15.0622 30.4831L15.0622 30.4831L16.1446 33.281ZM8.963 38.196L6.74669 36.1742L6.74661 36.1743L8.963 38.196ZM4.72667 45.7966L1.84141 44.9749L1.84138 44.975L4.72667 45.7966ZM4.32335 54.489L1.37434 55.0398L1.37436 55.0399L4.32335 54.489ZM7.83703 62.45L5.44284 64.2577L5.44293 64.2578L7.83703 62.45ZM14.5314 68.0085L13.1942 70.694L13.1943 70.6941L14.5314 68.0085ZM14.0861 68.9041L12.7489 71.5896L12.749 71.5896L14.0861 68.9041ZM7.03917 63.0525L4.64498 64.8602L4.64508 64.8603L7.03917 63.0525ZM3.33995 54.6726L0.390942 55.2234L0.390962 55.2235L3.33995 54.6726ZM3.76476 45.5222L0.879501 44.7005L0.879482 44.7005L3.76476 45.5222ZM8.22472 37.5212L6.00843 35.4993L6.0084 35.4994L8.22472 37.5212ZM22.5021 70.9945L22.5769 67.9955L22.5021 70.9945ZM32.5842 34.5952L31.0709 37.1856L32.5842 34.5952ZM22.5021 69.9942L22.5808 66.9952L22.5021 69.9942ZM33.111 33.7445L31.5943 36.3329L33.111 33.7445ZM15.7833 32.3484L16.8658 35.1463C19.3191 34.1971 21.9598 33.8297 24.5781 34.0737L24.8566 31.0867L25.135 28.0996C21.5914 27.7693 18.0192 28.2667 14.7009 29.5505L15.7833 32.3484ZM24.8566 31.0867L24.578 34.0737C27.0553 34.3047 29.4504 35.0768 31.5943 36.3329L33.111 33.7445L34.6276 31.1561C31.7272 29.4567 28.4869 28.4122 25.1351 28.0996L24.8566 31.0867ZM32.5842 34.5952L34.0974 32.0048C31.3295 30.3879 28.2388 29.3938 25.0423 29.0957L24.7638 32.0828L24.4852 35.0698C26.8097 35.2866 29.0578 36.0096 31.0709 37.1856L32.5842 34.5952ZM24.7638 32.0828L25.0422 29.0957C21.653 28.7798 18.2364 29.2551 15.0622 30.4831L16.1446 33.281L17.2271 36.0789C19.5359 35.1857 22.0209 34.8401 24.4854 35.0698L24.7638 32.0828ZM16.1446 33.281L15.0622 30.4831C11.8878 31.7112 9.04083 33.6594 6.74669 36.1742L8.963 38.196L11.1793 40.2179C12.8476 38.3892 14.9182 36.9722 17.2271 36.0789L16.1446 33.281ZM8.963 38.196L6.74661 36.1743C4.45284 38.6888 2.77368 41.7015 1.84141 44.9749L4.72667 45.7966L7.61193 46.6184C8.28996 44.2377 9.51122 42.0466 11.1794 40.2178L8.963 38.196ZM4.72667 45.7966L1.84138 44.975C0.909143 48.2486 0.749535 51.6942 1.37434 55.0398L4.32335 54.489L7.27237 53.9383C6.8179 51.5048 6.93406 48.9988 7.61196 46.6183L4.72667 45.7966ZM4.32335 54.489L1.37436 55.0399C1.99928 58.3852 3.39179 61.5412 5.44284 64.2577L7.83703 62.45L10.2312 60.6422C8.73985 58.667 7.72692 56.3716 7.27234 53.9381L4.32335 54.489ZM7.83703 62.45L5.44293 64.2578C7.49399 66.974 10.1478 69.1771 13.1942 70.694L14.5314 68.0085L15.8686 65.323C13.6527 64.2197 11.7226 62.6172 10.2311 60.6421L7.83703 62.45ZM14.5314 68.0085L13.1943 70.6941C16.0679 72.1248 19.2183 72.909 22.4233 72.9932L22.5021 69.9942L22.5808 66.9952C20.2504 66.9341 17.9589 66.3638 15.8685 65.323L14.5314 68.0085ZM22.5021 70.9945L22.5769 67.9955C20.0931 67.9336 17.6507 67.3275 15.4231 66.2185L14.0861 68.9041L12.749 71.5896C15.7623 73.0898 19.0665 73.9098 22.4274 73.9936L22.5021 70.9945ZM14.0861 68.9041L15.4232 66.2185C13.0689 65.0463 11.0181 63.3433 9.43327 61.2446L7.03917 63.0525L4.64508 64.8603C6.7893 67.6999 9.56381 70.0036 12.7489 71.5896L14.0861 68.9041ZM7.03917 63.0525L9.43337 61.2448C7.84852 59.1458 6.77185 56.7069 6.28895 54.1217L3.33995 54.6726L0.390962 55.2235C1.04435 58.7213 2.50094 62.0206 4.64498 64.8602L7.03917 63.0525ZM3.33995 54.6726L6.28897 54.1219C5.8061 51.5363 5.92967 48.8734 6.65003 46.3439L3.76476 45.5222L0.879482 44.7005C-0.0951902 48.123 -0.262307 51.7255 0.390942 55.2234L3.33995 54.6726ZM3.76476 45.5222L6.65001 46.344C7.37044 43.8145 8.66834 41.4863 10.441 39.5431L8.22472 37.5212L6.0084 35.4994C3.61023 38.1282 1.85427 41.278 0.879501 44.7005L3.76476 45.5222ZM8.22472 37.5212L10.441 39.5431C12.2134 37.6004 14.4127 36.0954 16.8658 35.1463L15.7833 32.3484L14.7008 29.5505C11.3825 30.8344 8.40679 32.8704 6.00843 35.4993L8.22472 37.5212ZM23.0021 70.5008L20.0021 70.5008C20.0021 69.1403 21.1183 67.9591 22.5769 67.9955L22.5021 70.9945L22.4274 73.9936C24.4381 74.0437 26.0021 72.4136 26.0021 70.5008L23.0021 70.5008ZM33.2755 34.4275L30.7223 32.8523C31.4592 31.658 32.9737 31.3484 34.0974 32.0048L32.5842 34.5952L31.0709 37.1856C32.6714 38.1206 34.8018 37.667 35.8287 36.0027L33.2755 34.4275ZM22.5021 69.9942L22.4233 72.9932C21.125 72.9591 20.0021 71.9015 20.0021 70.5008L23.0021 70.5008L26.0021 70.5008C26.0021 68.5477 24.4313 67.0438 22.5808 66.9952L22.5021 69.9942ZM33.111 33.7445L31.5943 36.3329C30.3349 35.595 30.0087 34.002 30.7266 32.8454L33.2755 34.4275L35.8244 36.0096C36.8335 34.3838 36.3635 32.1732 34.6276 31.1561L33.111 33.7445Z" fill="white"/>
<path d="M279.755 108.652L280.837 111.45L280.837 111.449L279.755 108.652ZM270.681 109.913L270.403 112.9L270.403 112.9L270.681 109.913ZM262.262 106.573L264.811 108.155L264.816 108.148L262.262 106.573ZM270.774 108.917L270.496 111.904L270.496 111.904L270.774 108.917ZM279.393 107.719L280.476 110.517L280.476 110.517L279.393 107.719ZM286.575 102.804L288.791 104.826L288.791 104.826L286.575 102.804ZM290.811 95.2034L293.696 96.0251L293.696 96.025L290.811 95.2034ZM291.214 86.511L294.164 85.9602L294.163 85.9601L291.214 86.511ZM287.701 78.55L290.095 76.7423L290.095 76.7422L287.701 78.55ZM281.006 72.9915L282.344 70.306L282.344 70.3059L281.006 72.9915ZM281.452 72.0959L282.789 69.4104L282.789 69.4104L281.452 72.0959ZM288.499 77.9475L290.893 76.1398L290.893 76.1397L288.499 77.9475ZM292.198 86.3274L295.147 85.7766L295.147 85.7765L292.198 86.3274ZM291.773 95.4778L294.658 96.2995L294.658 96.2995L291.773 95.4778ZM287.313 103.479L289.529 105.501L289.529 105.501L287.313 103.479ZM273.036 70.0055L272.961 73.0045L273.036 70.0055ZM262.954 106.405L264.467 103.814L262.954 106.405ZM273.036 71.0058L272.957 74.0048L273.036 71.0058ZM262.427 107.255L263.944 104.667L262.427 107.255ZM279.755 108.652L278.672 105.854C276.219 106.803 273.578 107.17 270.96 106.926L270.681 109.913L270.403 112.9C273.946 113.231 277.519 112.733 280.837 111.45L279.755 108.652ZM270.681 109.913L270.96 106.926C268.483 106.695 266.087 105.923 263.944 104.667L262.427 107.255L260.91 109.844C263.811 111.543 267.051 112.588 270.403 112.9L270.681 109.913ZM262.954 106.405L261.44 108.995C264.208 110.612 267.299 111.606 270.496 111.904L270.774 108.917L271.053 105.93C268.728 105.713 266.48 104.99 264.467 103.814L262.954 106.405ZM270.774 108.917L270.496 111.904C273.885 112.22 277.301 111.745 280.476 110.517L279.393 107.719L278.311 104.921C276.002 105.814 273.517 106.16 271.052 105.93L270.774 108.917ZM279.393 107.719L280.476 110.517C283.65 109.289 286.497 107.341 288.791 104.826L286.575 102.804L284.359 100.782C282.69 102.611 280.62 104.028 278.311 104.921L279.393 107.719ZM286.575 102.804L288.791 104.826C291.085 102.311 292.764 99.2985 293.696 96.0251L290.811 95.2034L287.926 94.3816C287.248 96.7623 286.027 98.9534 284.358 100.782L286.575 102.804ZM290.811 95.2034L293.696 96.025C294.629 92.7514 294.788 89.3058 294.164 85.9602L291.214 86.511L288.265 87.0617C288.72 89.4952 288.604 92.0012 287.926 94.3817L290.811 95.2034ZM291.214 86.511L294.163 85.9601C293.539 82.6148 292.146 79.4588 290.095 76.7423L287.701 78.55L285.307 80.3578C286.798 82.333 287.811 84.6284 288.266 87.0619L291.214 86.511ZM287.701 78.55L290.095 76.7422C288.044 74.026 285.39 71.8228 282.344 70.306L281.006 72.9915L279.669 75.677C281.885 76.7803 283.815 78.3828 285.307 80.3579L287.701 78.55ZM281.006 72.9915L282.344 70.3059C279.47 68.8752 276.32 68.0909 273.115 68.0068L273.036 71.0058L272.957 74.0048C275.287 74.0659 277.579 74.6362 279.669 75.677L281.006 72.9915ZM273.036 70.0055L272.961 73.0045C275.445 73.0664 277.887 73.6725 280.115 74.7815L281.452 72.0959L282.789 69.4104C279.776 67.9102 276.471 67.0902 273.11 67.0064L273.036 70.0055ZM281.452 72.0959L280.115 74.7815C282.469 75.9537 284.52 77.6567 286.105 79.7554L288.499 77.9475L290.893 76.1397C288.749 73.3001 285.974 70.9963 282.789 69.4104L281.452 72.0959ZM288.499 77.9475L286.104 79.7552C287.689 81.8542 288.766 84.2931 289.249 86.8782L292.198 86.3274L295.147 85.7765C294.494 82.2787 293.037 78.9794 290.893 76.1398L288.499 77.9475ZM292.198 86.3274L289.249 86.8781C289.732 89.4637 289.608 92.1266 288.888 94.6561L291.773 95.4778L294.658 96.2995C295.633 92.877 295.8 89.2745 295.147 85.7766L292.198 86.3274ZM291.773 95.4778L288.888 94.656C288.167 97.1855 286.87 99.5137 285.097 101.457L287.313 103.479L289.529 105.501C291.928 102.872 293.684 99.722 294.658 96.2995L291.773 95.4778ZM287.313 103.479L285.097 101.457C283.324 103.4 281.125 104.905 278.672 105.854L279.755 108.652L280.837 111.449C284.155 110.166 287.131 108.13 289.529 105.501L287.313 103.479ZM272.536 70.4992L275.536 70.4992C275.536 71.8597 274.42 73.0409 272.961 73.0045L273.036 70.0055L273.11 67.0064C271.1 66.9563 269.536 68.5864 269.536 70.4992L272.536 70.4992ZM262.262 106.573L264.816 108.148C264.079 109.342 262.564 109.652 261.44 108.995L262.954 106.405L264.467 103.814C262.866 102.879 260.736 103.333 259.709 104.997L262.262 106.573ZM273.036 71.0058L273.115 68.0068C274.413 68.0409 275.536 69.0985 275.536 70.4992L272.536 70.4992L269.536 70.4992C269.536 72.4523 271.107 73.9562 272.957 74.0048L273.036 71.0058ZM262.427 107.255L263.944 104.667C265.203 105.405 265.529 106.998 264.811 108.155L262.262 106.573L259.713 104.99C258.704 106.616 259.174 108.827 260.91 109.844L262.427 107.255Z" fill="white"/>
<path d="M148 3L148 6C157.388 5.99999 165 13.6112 165 23L168 23L171 23C171 10.2974 160.702 -5.7179e-06 148 -3.49691e-06L148 3ZM168 23L165 23C165 32.3888 157.388 40 148 40L148 43L148 46C160.702 46 171 35.7025 171 23L168 23ZM148 43L148 40C138.611 40 131 32.3888 131 23L128 23L125 23C125 35.7025 135.297 46 148 46L148 43ZM128 23L131 23C131 13.6112 138.611 6 148 6L148 3L148 -3.49691e-06C135.297 -1.27593e-06 125 10.2975 125 23L128 23ZM148 4L148 0.999997C135.849 0.999999 126 10.8497 126 23L129 23L132 23C132 14.1634 139.163 7 148 7L148 4ZM129 23L126 23C126 35.1503 135.849 45 148 45L148 42L148 39C139.163 39 132 31.8366 132 23L129 23ZM148 42L148 45C160.15 45 170 35.1503 170 23L167 23L164 23C164 31.8365 156.836 39 148 39L148 42ZM167 23L170 23C170 10.8497 160.15 0.999994 148 0.999997L148 4L148 7C156.836 6.99999 164 14.1634 164 23L167 23Z" fill="white"/>
<path d="M22.9996 70.5L273 70.5" stroke="white" stroke-width="7"/>
<circle cx="23.4996" cy="51.5" r="8" fill="white" stroke="white"/>
<path d="M34.4317 189.714C34.247 186.088 35.0534 182.479 36.7641 179.275C38.4748 176.072 41.0249 173.395 44.1415 171.531C47.1152 169.753 50.4976 168.78 53.9557 168.702C54.2317 168.696 54.4549 168.921 54.4543 169.197C54.4536 169.473 54.2292 169.695 53.9533 169.702C50.6768 169.78 47.4729 170.705 44.6552 172.39C41.6942 174.16 39.2707 176.704 37.6456 179.747C36.0206 182.79 35.2551 186.218 35.4305 189.663C35.606 193.108 36.7157 196.441 38.6415 199.304C40.5673 202.166 43.2365 204.45 46.3619 205.911C49.4874 207.371 52.9522 207.953 56.3834 207.594C59.8144 207.235 63.0834 205.948 65.8387 203.872C68.4607 201.897 70.5238 199.277 71.8303 196.271C71.9405 196.018 72.2315 195.894 72.4877 195.997C72.7434 196.1 72.8676 196.392 72.758 196.645C71.3832 199.819 69.2072 202.586 66.4398 204.671C63.5394 206.856 60.0986 208.21 56.4869 208.588C52.8753 208.966 49.2281 208.354 45.9382 206.817C42.6486 205.279 39.8394 202.875 37.8123 199.862C35.7851 196.85 34.6164 193.341 34.4317 189.714Z" fill="white"/>
<path d="M34.4317 189.714L31.4355 189.867L31.4356 189.867L34.4317 189.714ZM36.7641 179.275L34.1178 177.862L34.1178 177.862L36.7641 179.275ZM44.1415 171.531L42.6019 168.956L42.6019 168.956L44.1415 171.531ZM44.6552 172.39L43.1156 169.815L43.1156 169.815L44.6552 172.39ZM37.6456 179.747L34.9993 178.334L34.9992 178.334L37.6456 179.747ZM35.4305 189.663L32.4344 189.816L32.4344 189.816L35.4305 189.663ZM38.6415 199.304L36.1524 200.978L36.1525 200.978L38.6415 199.304ZM46.3619 205.911L45.0918 208.628L45.0919 208.628L46.3619 205.911ZM56.3834 207.594L56.6956 210.578L56.6957 210.578L56.3834 207.594ZM65.8387 203.872L67.6439 206.268L67.644 206.268L65.8387 203.872ZM72.4877 195.997L71.3645 198.779L71.3647 198.779L72.4877 195.997ZM66.4398 204.671L68.245 207.067L68.245 207.067L66.4398 204.671ZM56.4869 208.588L56.7991 211.572L56.7992 211.572L56.4869 208.588ZM45.9382 206.817L44.6681 209.534L44.6682 209.534L45.9382 206.817ZM37.8123 199.862L35.3232 201.537L35.3233 201.537L37.8123 199.862ZM71.8303 196.271L69.079 195.075L71.8303 196.271ZM72.758 196.645L70.0051 195.453L70.0051 195.453L72.758 196.645ZM54.4543 169.197L51.4543 169.19L54.4543 169.197ZM53.9533 169.702L54.0247 172.701L53.9533 169.702ZM53.9557 168.702L54.0232 171.701L53.9557 168.702ZM34.4317 189.714L37.4278 189.562C37.2708 186.479 37.9563 183.411 39.4104 180.689L36.7641 179.275L34.1178 177.862C32.1506 181.546 31.2232 185.696 31.4355 189.867L34.4317 189.714ZM36.7641 179.275L39.4103 180.689C40.8646 177.966 43.0322 175.69 45.6811 174.106L44.1415 171.531L42.6019 168.956C39.0175 171.1 36.085 174.179 34.1178 177.862L36.7641 179.275ZM44.1415 171.531L45.6811 174.106C48.2085 172.595 51.0836 171.768 54.0232 171.701L53.9557 168.702L53.8883 165.703C49.9116 165.792 46.0219 166.912 42.6019 168.956L44.1415 171.531ZM53.9533 169.702L53.8818 166.703C50.0879 166.793 46.3781 167.864 43.1156 169.815L44.6552 172.39L46.1947 174.964C48.5677 173.546 51.2658 172.767 54.0247 172.701L53.9533 169.702ZM44.6552 172.39L43.1156 169.815C39.6872 171.865 36.881 174.81 34.9993 178.334L37.6456 179.747L40.2918 181.16C41.6604 178.597 43.7013 176.455 46.1947 174.964L44.6552 172.39ZM37.6456 179.747L34.9992 178.334C33.1176 181.857 32.2313 185.827 32.4344 189.816L35.4305 189.663L38.4266 189.511C38.2789 186.609 38.9236 183.722 40.2919 181.16L37.6456 179.747ZM35.4305 189.663L32.4344 189.816C32.6375 193.805 33.9224 197.664 36.1524 200.978L38.6415 199.304L41.1305 197.629C39.509 195.219 38.5744 192.412 38.4266 189.511L35.4305 189.663ZM38.6415 199.304L36.1525 200.978C38.3824 204.292 41.4729 206.937 45.0918 208.628L46.3619 205.911L47.6319 203.193C45.0001 201.963 42.7523 200.039 41.1305 197.629L38.6415 199.304ZM46.3619 205.911L45.0919 208.628C48.7108 210.319 52.7226 210.994 56.6956 210.578L56.3834 207.594L56.0711 204.61C53.1819 204.913 50.264 204.422 47.6319 203.193L46.3619 205.911ZM56.3834 207.594L56.6957 210.578C60.6687 210.162 64.4537 208.672 67.6439 206.268L65.8387 203.872L64.0335 201.476C61.7131 203.224 58.9602 204.308 56.0711 204.61L56.3834 207.594ZM65.8387 203.872L67.644 206.268C70.6801 203.981 73.0689 200.947 74.5816 197.467L71.8303 196.271L69.079 195.075C67.9788 197.606 66.2413 199.813 64.0335 201.476L65.8387 203.872ZM72.758 196.645L70.0051 195.453C68.8365 198.151 66.9867 200.503 64.6346 202.275L66.4398 204.671L68.245 207.067C71.4276 204.669 73.93 201.487 75.5109 197.837L72.758 196.645ZM66.4398 204.671L64.6346 202.275C62.1692 204.132 59.2445 205.283 56.1747 205.605L56.4869 208.588L56.7992 211.572C60.9527 211.137 64.9095 209.58 68.245 207.067L66.4398 204.671ZM56.4869 208.588L56.1747 205.605C53.1047 205.926 50.0046 205.405 47.2082 204.099L45.9382 206.817L44.6682 209.534C48.4517 211.302 52.6458 212.007 56.7991 211.572L56.4869 208.588ZM45.9382 206.817L47.2083 204.099C44.4123 202.792 42.0244 200.748 40.3012 198.188L37.8123 199.862L35.3233 201.537C37.6544 205.001 40.8849 207.766 44.6681 209.534L45.9382 206.817ZM37.8123 199.862L40.3013 198.188C38.5783 195.627 37.5848 192.645 37.4278 189.562L34.4317 189.714L31.4356 189.867C31.648 194.038 32.992 198.072 35.3232 201.537L37.8123 199.862ZM71.8303 196.271L74.5816 197.467C74.064 198.658 72.6633 199.303 71.3645 198.779L72.4877 195.997L73.6108 193.215C71.7996 192.484 69.817 193.378 69.079 195.075L71.8303 196.271ZM72.4877 195.997L71.3647 198.779C70.1024 198.269 69.4251 196.792 70.0051 195.453L72.758 196.645L75.5109 197.837C76.31 195.992 75.3844 193.931 73.6106 193.215L72.4877 195.997ZM54.4543 169.197L51.4543 169.19C51.4577 167.788 52.5834 166.734 53.8818 166.703L53.9533 169.702L54.0247 172.701C55.875 172.657 57.4495 171.157 57.4542 169.204L54.4543 169.197ZM53.9557 168.702L54.0232 171.701C52.5646 171.734 51.4509 170.55 51.4543 169.19L54.4543 169.197L57.4542 169.204C57.4589 167.291 55.8987 165.658 53.8883 165.703L53.9557 168.702Z" fill="white"/>
<circle cx="54.1455" cy="189.146" r="8" transform="rotate(-67 54.1455 189.146)" fill="white" stroke="white"/>
<path d="M261.763 184.239L264.536 183.096L264.536 183.096L261.763 184.239ZM263.045 194.858L266.011 195.308L266.011 195.308L263.045 194.858ZM258.673 204.62L260.983 206.534L260.983 206.534L258.673 204.62ZM249.895 210.731L250.888 213.562L250.888 213.562L249.895 210.731ZM239.223 211.446L238.616 214.384L238.616 214.384L239.223 211.446ZM229.708 206.559L227.674 208.764L227.674 208.764L229.708 206.559ZM230.387 205.824L228.353 208.028L228.353 208.029L230.387 205.824ZM239.425 210.467L238.818 213.405L238.818 213.405L239.425 210.467ZM249.564 209.788L250.557 212.619L250.557 212.619L249.564 209.788ZM257.902 203.982L260.212 205.896L260.213 205.896L257.902 203.982ZM262.057 194.708L265.023 195.158L265.023 195.158L262.057 194.708ZM260.838 184.621L263.612 183.478L263.612 183.478L260.838 184.621ZM254.595 176.604L256.383 174.195L256.383 174.195L254.595 176.604ZM245.162 172.451L248.148 172.742L248.148 172.74L245.162 172.451ZM255.191 175.801L256.979 173.392L256.979 173.392L255.191 175.801ZM245.611 173.005L245.981 170.028L245.611 173.005ZM245.706 172.009L245.341 174.987L245.706 172.009ZM224.554 197.327L223.714 194.447L224.554 197.327ZM225.18 197.665L228.036 196.748L225.18 197.665ZM224.22 197.945L221.362 198.858L224.22 197.945ZM261.763 184.239L258.989 185.382C260.165 188.236 260.542 191.356 260.079 194.408L263.045 194.858L266.011 195.308C266.637 191.179 266.128 186.957 264.536 183.096L261.763 184.239ZM263.045 194.858L260.079 194.408C259.616 197.461 258.332 200.329 256.363 202.706L258.673 204.62L260.983 206.534C263.648 203.318 265.385 199.436 266.011 195.308L263.045 194.858ZM258.673 204.62L256.363 202.706C254.394 205.083 251.814 206.878 248.901 207.901L249.895 210.731L250.888 213.562C254.828 212.179 258.319 209.75 260.983 206.534L258.673 204.62ZM249.895 210.731L248.901 207.901C245.989 208.923 242.853 209.133 239.83 208.508L239.223 211.446L238.616 214.384C242.706 215.23 246.948 214.945 250.888 213.562L249.895 210.731ZM239.223 211.446L239.83 208.508C236.807 207.884 234.011 206.447 231.743 204.354L229.708 206.559L227.674 208.764C230.743 211.596 234.526 213.539 238.616 214.384L239.223 211.446ZM229.708 206.559L231.743 204.354C229.579 202.357 227.973 199.833 227.078 197.032L224.22 197.945L221.362 198.858C222.572 202.647 224.745 206.061 227.674 208.764L229.708 206.559ZM225.18 197.665L222.323 198.581C223.483 202.195 225.559 205.451 228.353 208.028L230.387 205.824L232.421 203.619C230.389 201.744 228.879 199.376 228.036 196.748L225.18 197.665ZM230.387 205.824L228.353 208.029C231.288 210.737 234.906 212.596 238.818 213.405L239.425 210.467L240.032 207.529C237.188 206.941 234.557 205.589 232.421 203.619L230.387 205.824ZM239.425 210.467L238.818 213.405C242.729 214.213 246.788 213.942 250.557 212.619L249.564 209.788L248.57 206.958C245.829 207.92 242.877 208.117 240.032 207.529L239.425 210.467ZM249.564 209.788L250.557 212.619C254.327 211.296 257.664 208.971 260.212 205.896L257.902 203.982L255.592 202.068C253.739 204.305 251.311 205.996 248.57 206.958L249.564 209.788ZM257.902 203.982L260.213 205.896C262.761 202.82 264.424 199.107 265.023 195.158L262.057 194.708L259.091 194.258C258.655 197.13 257.446 199.831 255.592 202.068L257.902 203.982ZM262.057 194.708L265.023 195.158C265.622 191.208 265.134 187.171 263.612 183.478L260.838 184.621L258.064 185.764C259.171 188.45 259.526 191.386 259.091 194.258L262.057 194.708ZM260.838 184.621L263.612 183.478C262.09 179.784 259.591 176.575 256.383 174.195L254.595 176.604L252.807 179.013C255.14 180.744 256.957 183.078 258.064 185.764L260.838 184.621ZM254.595 176.604L256.383 174.195C253.331 171.929 249.746 170.495 245.981 170.028L245.611 173.005L245.242 175.982C247.98 176.322 250.587 177.365 252.807 179.013L254.595 176.604ZM245.706 172.009L245.341 174.987C248.259 175.345 251.038 176.454 253.403 178.21L255.191 175.801L256.979 173.392C253.779 171.017 250.02 169.516 246.072 169.031L245.706 172.009ZM255.191 175.801L253.403 178.21C255.882 180.049 257.813 182.529 258.989 185.382L261.763 184.239L264.536 183.096C262.945 179.235 260.332 175.88 256.979 173.392L255.191 175.801ZM245.611 173.005L245.981 170.028C247.269 170.188 248.284 171.348 248.148 172.742L245.162 172.451L242.176 172.161C241.987 174.105 243.405 175.754 245.242 175.982L245.611 173.005ZM245.162 172.451L248.148 172.74C248.017 174.096 246.79 175.164 245.341 174.987L245.706 172.009L246.072 169.031C244.075 168.786 242.36 170.258 242.176 172.163L245.162 172.451ZM224.554 197.327L225.393 200.207C224.049 200.599 222.72 199.817 222.323 198.581L225.18 197.665L228.036 196.748C227.471 194.987 225.589 193.9 223.714 194.447L224.554 197.327ZM224.22 197.945L227.078 197.032C227.522 198.423 226.701 199.826 225.393 200.207L224.554 197.327L223.714 194.447C221.877 194.982 220.75 196.941 221.362 198.858L224.22 197.945Z" fill="white"/>
<path d="M242.625 198.977C238.213 198.746 234.823 194.982 235.054 190.57C235.286 186.157 239.05 182.768 243.462 182.999C247.874 183.231 251.264 186.995 251.033 191.407C250.801 195.819 247.037 199.209 242.625 198.977Z" fill="white" stroke="white"/>
<circle cx="272.5" cy="89.5" r="8" fill="white" stroke="white"/>
<circle cx="148.5" cy="23.5" r="8" fill="white" stroke="white"/>
<path d="M148.847 114.146L148.871 112.647L148.861 112.646L148.851 112.646L148.847 114.146ZM164.042 129.449L165.542 129.456L165.542 129.445L165.542 129.434L164.042 129.449ZM164.04 129.847L165.54 129.871L165.54 129.863L165.54 129.855L164.04 129.847ZM148.739 145.042L148.731 146.542L148.742 146.542L148.753 146.542L148.739 145.042ZM148.34 145.04L148.316 146.54L148.324 146.54L148.332 146.54L148.34 145.04ZM133.154 130.137L131.654 130.17L131.654 130.18L131.655 130.189L133.154 130.137ZM133.145 129.739L131.645 129.753L131.645 129.762L131.646 129.771L133.145 129.739ZM148.449 114.145L148.453 112.645L148.444 112.645L148.434 112.645L148.449 114.145ZM148.458 115.145L148.444 113.645L148.444 113.645L148.458 115.145ZM134.145 129.73L132.645 129.744L132.645 129.744L134.145 129.73ZM148.73 144.042L148.744 145.542L148.744 145.542L148.73 144.042ZM163.042 129.458L164.542 129.444L164.542 129.444L163.042 129.458ZM148.847 114.146L148.823 115.646C156.361 115.766 162.471 121.88 162.542 129.463L164.042 129.449L165.542 129.434C165.456 120.22 158.032 112.792 148.871 112.647L148.847 114.146ZM164.042 129.449L162.542 129.441L162.54 129.839L164.04 129.847L165.54 129.855L165.542 129.456L164.042 129.449ZM164.04 129.847L162.54 129.823C162.42 137.361 156.308 143.471 148.725 143.542L148.739 145.042L148.753 146.542C157.967 146.455 165.394 139.032 165.54 129.871L164.04 129.847ZM148.739 145.042L148.747 143.542L148.347 143.54L148.34 145.04L148.332 146.54L148.731 146.542L148.739 145.042ZM148.34 145.04L148.363 143.54C140.945 143.422 134.91 137.5 134.653 130.085L133.154 130.137L131.655 130.189C131.968 139.201 139.3 146.396 148.316 146.54L148.34 145.04ZM133.154 130.137L134.653 130.105L134.645 129.706L133.145 129.739L131.646 129.771L131.654 130.17L133.154 130.137ZM133.145 129.739L134.645 129.725C134.573 122.021 140.759 115.718 148.463 115.645L148.449 114.145L148.434 112.645C139.074 112.733 131.557 120.393 131.645 129.753L133.145 129.739ZM148.449 114.145L148.444 115.645L148.843 115.646L148.847 114.146L148.851 112.646L148.453 112.645L148.449 114.145ZM148.458 115.145L148.444 113.645C139.636 113.728 132.562 120.936 132.645 129.744L134.145 129.73L135.645 129.715C135.578 122.564 141.321 116.712 148.472 116.645L148.458 115.145ZM134.145 129.73L132.645 129.744C132.728 138.552 139.936 145.625 148.744 145.542L148.73 144.042L148.715 142.542C141.564 142.61 135.712 136.867 135.645 129.715L134.145 129.73ZM148.73 144.042L148.744 145.542C157.552 145.459 164.625 138.252 164.542 129.444L163.042 129.458L161.542 129.472C161.61 136.623 155.867 142.475 148.715 142.542L148.73 144.042ZM163.042 129.458L164.542 129.444C164.459 120.636 157.252 113.563 148.444 113.645L148.458 115.145L148.472 116.645C155.623 116.578 161.475 122.321 161.542 129.472L163.042 129.458Z" fill="white"/>
<path d="M148.926 123.911C152.276 123.879 155.017 126.569 155.049 129.919C155.081 133.269 152.39 136.01 149.04 136.042C145.69 136.073 142.949 133.383 142.918 130.033C142.887 126.683 145.576 123.942 148.926 123.911Z" fill="white" stroke="white"/>
<path d="M128.493 23.0116L71.9643 196.988" stroke="white" stroke-width="7"/>
<path d="M120.469 81L83 196.318" stroke="white" stroke-width="2" stroke-linecap="round"/>
<path d="M97.8739 81L66 179.098" stroke="white" stroke-width="2" stroke-linecap="round"/>
<path d="M37.2526 63L260.253 63" stroke="white" stroke-width="2" stroke-linecap="round"/>
<path d="M43 81L98 81" stroke="white" stroke-width="2" stroke-linecap="round"/>
<path d="M199 81L231.162 179.986" stroke="white" stroke-width="2" stroke-linecap="round"/>
<path d="M255 81L199 81" stroke="white" stroke-width="2" stroke-linecap="round"/>
<path d="M176 81L213.469 196.318" stroke="white" stroke-width="2" stroke-linecap="round"/>
<path d="M167.438 20L225.344 199.706" stroke="white" stroke-width="7"/>
</svg>
